<?xml version="1.0" encoding="UTF-8"?>
<svg id="Layer_1" data-name="Layer 1" xmlns="http://www.w3.org/2000/svg" viewBox="0 0 85.99 220.04">
  <path d="M69.96,213.29c-27.48,14.49-64.99,4.98-69.47-22.36-1.99-12.1,2.28-21.96,10.88-29.94,2.55-2.36,6.17-6.59,6.8-9.76l-6.21-16.01c-2.18-5.63-.35-12.64,4.72-15.63,6.83-4.03,7.11,8.53,13.98,8.63,2.82.04,5.58-3.08,5.61-6.44l.8-90.62c.05-5.31-5.96-11.42-6.17-10.78.17-.54.73-2.28.63-1.98l2.27.28c.41.05,1.37-1.37,1.02-1.59l-2.44-1.54-1.87-1.18c-.7-.44,6.14-2.58,4.21-3.97l-3.05-2.2c-.32-.23-1.06-1.62-.66-1.76l2.95-1.04-.5-4.17c5.33-1.39,12-2,16.17.3.56,2.53,1.53,4.08,3.26,6.28l-3.31,1.29c-.92.36-.74,3.63.24,3.76l2.45.33c.51.07.8,1.76.3,1.89l-2.6.72c-.59.16-1.14,1.71-1.18,2.43-.04.62,1.35.34,2.89,0l1.08,2c.3.55-2.05,1.13-2.95,1.35l-3.75,8.56,2.03,92.16c.06,2.6,3.73,5.72,5.67,5.93,6.55.71,7.56-10.47,12.11-9.96,7.27.81,10.18,8.41,8.13,14.52l-5.63,16.8c-.91,2.72,3,7.87,5.21,9.57,8.26,6.38,12.1,14.41,12.38,24.72.33,11.98-4.59,23.36-16.02,29.39ZM9.95,187.5c3.37,1.88,5.54-.51,6.18-2.87.77-2.86,3.81-7.16,4.21-9.97l1.72-12.02-5.33,9.65c-1.96,3.54-.08,9.58-3.47,12.65-1.34.23-4.3,1.99-3.31,2.56ZM76.51,186.62l-5.06-1.68-2.92-12.87c-.48-2.12-2.98-5.47-4.62-7.78l.85,10.43,4.66,10.03c.85,1.83,2.24,6.37,7.09,1.87Z"/>
</svg>