<?xml version="1.0" encoding="UTF-8"?>
<svg id="Layer_1" data-name="Layer 1" xmlns="http://www.w3.org/2000/svg" viewBox="0 0 76.47 231.51">
  <path d="M76.45,206.99c.55,12.39-7.21,22.4-19.38,23.74-12.98,1.44-26.51.83-39.38-1.3-12.04-2-18.85-12.08-17.52-23.91,2.49-22.23,16.49-29.77,10.8-43.36-4.03-9.63-6.11-21.59,1.3-26.63,2.7-1.83,6.82-1.76,9.86-.6l11.55,4.43,4.78-99.66c-3.03-3.53-4.86-8.07-3.47-12.02l8.3-23.55,1.04-3.47c.22-.74,1.91-.44,3.11-.56,3.11-.34,6.35.16,7.72,2.42,1.87,3.09-.77,6.65-2.83,8.88,5.53,11.37-3.4,18.15-3.58,29.28l-1.7,107.81c-.03,1.67,2.27,4.26,3.61,4.67,10.83,3.27,11.69-14.97,16.5-15.73,6.3-.99,8.26,13.84,1.46,26.03-8.35,14.98,6.93,22.91,7.84,43.53ZM65.93,182.31c-2.71-5.47-3.65-10.99-1.03-16.78l4.06-9c-2.38-2.77-5.73-3.3-9.09-2-4.07,1.33-8.28,1.33-11.94-.48l-14.56.79-.23-12.44c-7.64,3.27-10.62,11.36-6.84,19.4,3.43,7.3,8.95,13.76,15.15,18.9l7.36.27c-2.56,11.24,12.26,13.65,8.48,29.44l8.09,11.65c14.91-2.1,7.59-25.55.56-39.74Z"/>
</svg>