<?xml version="1.0" encoding="UTF-8"?>
<svg id="Layer_1" data-name="Layer 1" xmlns="http://www.w3.org/2000/svg" viewBox="0 0 96.74 268.79">
  <path d="M45.77,144.16l2.91-4.7,1.85-102.73c-.14-3.12-1.95-5.58-4-7.45l-1.09-4.24,4.92-5.61s2.21.15,3.46.23l-1.4-2.58c-.29-.54.8-2.08,1.41-1.98l3.06.48-.71-3.31c-.18-.83,2.71-1.21,3.01-2.01l1.12-2.92c.28-.72,2.58.05,3.55.36l-.72-3.89,12.9-3.82-9.51,19.61c-2.19,4.52-5.51,11.11-5.47,16.43l.91,104.4,3.34,3.97,31.41,84.26c-12.86-5.96-23.78-11.78-37.07-14.31-9.13,3.71-17.17,10.07-24.8,16.38-13.2,11.58-24.29,24.09-34.86,38.03l27.88-78.05,17.89-46.58ZM92.29,223.96l-23.25-63.76c.46,19.03,3.09,37.16,4.84,55.96l18.41,7.81ZM60.27,212.31l9.75,1.7-9.75-6.48-8.97,8.44,8.98-3.66Z"/>
</svg>