<?xml version="1.0" encoding="UTF-8"?>
<svg id="Layer_1" data-name="Layer 1" xmlns="http://www.w3.org/2000/svg" viewBox="0 0 108 237.2">
  <path d="M9.95,230.36l34.5-60.57-2.66-24.3c-.6-5.47,11.86-3.89,12.15-14.16l2.39-85.58c.07-2.68-2.16-5.02-4.5-5.84l-.55-5.71,4.23-5.3,2.86-4.1,3.66-5.06c.35-.48,2.33-1.03,2.43-1.63l.45-2.68c1.85-1.17,3.85-3.09,5.05-4.77l9.42-.85c1.27-.11,1.65,2.54.88,4.2-6.81,9.73-11.99,19.48-15.2,31.06l-.04,81.66c0,3.74.97,7.8,3.6,10.58,1.23,1.29,5.67.67,7.3-.75l17.38-15.13c.62-.54,3.59-1.1,3.73-.34l.6,3.26-16.16,46.67,12.35,35.69c-25.7,13.82-53.11,23.3-83.9,23.63ZM53.92,163.9l14.22-.07v17.09s7.66-.31,7.66-.31l21.31-58.43c-9.84,3.57-15.33,16.63-28.87,20.66l-.18,8.79h-14.15s0,12.27,0,12.27Z"/>
</svg>