<?xml version="1.0" encoding="UTF-8"?>
<svg id="Layer_1" data-name="Layer 1" xmlns="http://www.w3.org/2000/svg" viewBox="0 0 89.41 230.16">
  <path d="M56.51,200.09c-3.09-3.53-7.54-7.61-12.02-7.92-4.34-.3-8.13,3.73-10.81,6.73l-25.56,28.57c-1.28,1.43-5.29,1.52-6.44.78s-2.07-3.45-1.49-5.2l31.4-94.06c5.02-2.89,6.03-6.95,6.09-12.36l.97-82.95c.04-3.44-3.93-6.71-6.46-7.87-.94.19-2.51.65-2.48.11l.14-2.74c.04-.71,2.12.15,2.96.65.53.31,2.21-1.03,2.06-1.67-.57-2.37-2.72-.63-3.34-3.89-.1-.51,1.09-1.38,1.53-1.16l2.02,1c.57.28,2.25-1.71,1.75-2.11l-2.11-1.71-1.28-1.05c-.43-.35.14-2.48.66-2.28l3.51,1.3,3.82-9.7c.39-1,2.57-2.47,3.62-2.56,1.23-.1,3.51,1.74,3.81,2.94l2.24,8.75,3.05-.66c.53-.11,1.45.72,1.45,1.26-.01,3.1-4.44,2.07-3.7,3.67.33.72,1.38,2.96,1.14,2.45l2.9-1.48c.6-.31,1.28,1.7,1.23,2.37s-1.67.82-2.73.87c-.4.02-1.48,1.57-1.17,1.89l1.51,1.51,2.93-.72c.5-.12.63,1.91.51,2.41-.15.67-.65.64-2.48.77-2.25.8-6.92,3.75-7.69,6.65l1.5,86.82c.08,4.45,4.23,6.84,6.17,9.9l33.49,94.37c.64,1.81-.41,5.46-1.75,6.13s-4.86-.04-5.95-1.29l-25.01-28.52ZM53.86,157.21l.13,27.81c8.09,9.15,15.6,18.09,24.98,27.31l-22.21-72.8c-.37-1.2-2.07-3.25-2.99-4.08l-.24,9.77h-18.68s.02,11.98.02,11.98l18.98.02Z"/>
</svg>