<?xml version="1.0" encoding="UTF-8"?>
<svg id="Layer_1" data-name="Layer 1" xmlns="http://www.w3.org/2000/svg" viewBox="0 0 75.3 226.18">
  <path d="M75.24,192.25c.79,13.83-6.63,25.47-19,30.41-21.73,8.69-50.48,1.42-55.58-22.81-2.5-11.88,2.21-23.55,11.39-31.34,5.08-4.31,6.98-9.72,3.33-15.71s-5.17-13.47-1.53-19.61,10.44-8.29,18.01-8.27l1.29-91.19-3.55-8.23c-.7-.13-2.6-.26-2.6-.73l.02-2.06c0-.61,1.49-.31,2.99-.03l.57-2.52c.14-.63-1.28-1.47-1.87-1.74l-2.02-.94c-.42-.19.22-2.28.67-2.18l2.89.61-.07-5.02-3.09.39c-.55.07-1.3-1.87-.83-2.14l2.54-1.41c1-.56,1.03-2.94.72-5.68l8.88-2.05,8.42,1.99-.44,6.65,3.1-.41c.6-.08.93,2.62.33,2.67l-2.97.24c-1.25.1-1.24,4.16,0,4.38.54.09,2.53-.64,2.62-.2l.42,1.92c.1.45-1.07.81-1.56,1.1l-2.67,1.57c-.52.31.29,2.48.9,2.48h2.65c0-.07.19,1.48.23,1.9.06.61-1.39,1.01-2.37,1.33l-4.16,8.16,1.26,99.82c.05,3.9,5.07,7.19,7.94,7.63,3.42.52,7.63-2.23,9.67-6.36,5.1,3.53,2.85,10.73-.83,17.44-3.06,5.57-2.57,11.46,2.23,15.74,6.83,6.1,11.47,14.17,12.05,24.2ZM27.27,167.6l.38,10.55c12.79-.36,22.74.03,34.7,1.68.36-1.5.56-4.65.11-5.86l-9.13-24.96c-1.69-4.62-3.79-7.33-8.7-10.5l-.39,5.43-16.84-.03.03,10.53,17.02-.05.29,13.18-17.46.03Z"/>
</svg>