<?xml version="1.0" encoding="UTF-8"?>
<svg id="Layer_1" data-name="Layer 1" xmlns="http://www.w3.org/2000/svg" viewBox="0 0 78.12 227.59">
  <path d="M76.62,210.92c-6.44,18.52-40.94,19.62-61.05,12.89-7.97-2.67-13.37-9.09-14.92-15.77-2.07-8.96.96-16.18,6.99-22.34,4.97-5.07,5.99-11.98,3.13-18.31-5.8-12.82-4.21-29.87,7.85-37.44l-.35,5.82c-.22,3.58,2.85,6.92,5.86,7.63,2.43.58,8.09-2.05,8.19-5.69l2.81-105.12-4.13-8.76-3-1.82,4.06-2.23c.96-.53-.88-3.44-1.97-3.5-.56-.03-2.57-1.01-2.15-1.25l2.07-1.16c.73-.41,2.2-1.19,2.16-1.85-.05-.89-1.27-2.33-2.04-2.76l-2.15-1.2c-.42-.23,1.51-.99,2.36-1.31,1.2-.45,1.39-3.01.72-5.46,5.57-1.67,11.86-1.7,17.5-.19l-.69,5.19,2.67.79c.46.13.61,1.09.7,1.64l-3.09.98c-.61.19-1.6,2.23-1.06,2.57l3.05,1.94c.32.2,1.53.86,1.24,1l-2.26,1.09c-.9.43-2.55,1.89-2.26,2.77s1.88,1.56,3.56,2.19c.25.11,1.22,1.26.77,1.41l-2.96.99-4.15,7.99,1.89,104.77c.08,4.22,5.14,7.39,7.84,6.97,4.27-.66,7.2-4.1,7.1-9.49,6.89,4.3,10.25,12.04,9.42,20.79-.27,2.85-.5,7.45-1.81,9.62-3.39,5.62-4.18,11.37-.45,16.93l6.79,10.14c3.79,5.67,4.14,12.71,1.76,19.54ZM57.42,186.66c2.81.84,5.91.65,8.24-.65-10.09-15.63,6.59-25.78-2.38-40.92-1.85,2.6-3.77,4.39-5.71,4.85-1.39.33-4.34-.63-5.47-1.74l-6.2-6.03-.28,6.78-5.19.3v26.76s5.26.28,5.26.28l.09,6.9,11.63,3.48Z"/>
</svg>