<?xml version="1.0" encoding="UTF-8"?>
<svg id="Layer_1" data-name="Layer 1" xmlns="http://www.w3.org/2000/svg" viewBox="0 0 74.92 233.01">
  <path d="M.37,204.6c3.14-18.41,13.73-26.05,10.83-38l-4.7-19.39c-2.57-10.61-.13-23.54,8.66-21.95.68,8.66,2.55,18.19,9.21,18.21,2.21,0,5.97-2.33,6.01-4.84l1.59-94.89-6.28-7.9c-.75-.94,1.64-2.89,3.14-3.45l-1.55-3.24c-.37-.78,2.8-1.59,3.74-1.8l-2.04-3.64c-.53-.94,2.5-1.92,4.27-2.2l-1.73-2.09c-.47-.57-.77-2.54-.05-2.74l3.91-1.08-2.78-2.72c-.54-.53.56-2.38,1.32-2.48l3.66-.48-2.69-2.5c-.45-.42-.62-2.13-.05-2.35l3.02-1.14c1.78-2.43,4.19-4.35,7.26-3.86s5.21,2.68,6.12,5.7c.86,2.84-1.56,6.1-4.43,7.96-1.59,5.21,5.48,12.35,3.93,22.34-5.13.41-8.84,3.51-8.76,8.56l1.59,106.88c2.22,2.67,6.34,3.9,9.79,3.25,5.97-1.13,5.58-9.95,9.75-15.32,9.4,3.94,7.69,16.1,3.13,26.32-6.96,15.61,5.91,22.54,8.45,40.71,1.63,11.63-4.91,21.48-16.65,24.29-13.58,3.25-28.78,2.99-42.16-1.03-11.48-3.46-17.45-13.67-15.5-25.14ZM54.2,201.03c6.64,1.57,12.21,10.87,16.07,8.33,7.45-4.9-12.05-28.59-9.71-36.42l4.57-15.3c1.4-4.69,1.7-9.23-.84-13.65l-2.73,6.47c-1.21,2.86-3.64,6.4-6.16,7.11-10.64,3.03-15.83-8.97-31.38-8.67,2.83,11.53,2.19,20.74-2.2,30.65-2.37,5.34-3.38,12.78.67,17.7s19,.78,31.71,3.78Z"/>
</svg>