<?xml version="1.0" encoding="UTF-8"?>
<svg id="Layer_1" data-name="Layer 1" xmlns="http://www.w3.org/2000/svg" viewBox="0 0 77.29 234">
  <path d="M77.29,210.2c.13,12.61-8.19,22.1-20.67,23.21s-26.18.62-38.85-1.52S-1.18,219.66.17,207.58c1.07-9.56,4.89-18.58,9.51-27.04,7.91-14.49-4.78-21.46-1.82-36.75,1.37-7.09,8.35-9.81,14.44-7.46l11.73,4.51,4.85-100.84c-2.97-2.59-4.42-9.65-4.49-9.49l1.52-3.34L44.09,2.87c.18-.53.32-2.35.8-2.4l2.89-.33c3.31-.37,6.48-.24,8.28,2.94,1.34,2.37-.83,6.06-3.12,8.08,5.31,12.25-3.51,19.07-3.67,29.6l-1.71,109.88c-.02,1.57,2.73,4.04,4.12,4.24,11.09,1.57,11.37-16.74,16.58-16.36,7.28.54,7.22,15.15,1.04,26.68-8.3,15.5,7.78,24.06,8,44.99ZM20.39,183.19c4.3,1.36,7.56.78,10.45-1.63l17.41.55c.41.51,2.37,2.62,3.05,2.64l16.86.43c-4-7.83-3.86-14.33-.2-21.4,6.1-11.8,4.87-23.13.49-23.21s-3.28,9.63-10.35,14.16c-3.66,2.34-7.41,1.59-10.52-1.39l-1.65,3.12-11.81-.09-.22-12.33c-12.08,4.75-16.01,25.53-13.5,39.16Z"/>
</svg>