<?xml version="1.0" encoding="UTF-8"?>
<svg id="Layer_1" data-name="Layer 1" xmlns="http://www.w3.org/2000/svg" viewBox="0 0 102.15 243.08">
  <path d="M78.63,214.16c-8.32-8.46-22.7-9.22-32.02-.41l2.39,3.21c-20.9,1.58-37.48,8.22-48.82,26.11-.93-7.64,1.93-14.58,6.03-20.59l22.68-33.25c5.61-8.22,11.2-16.19,14.35-25.82,2.2-6.71-4.89-18.22-8.54-16.65l-5.52,2.37,14.47-38.68c-2.23,11.1.21,27.58,8.29,29.66,1.41.36,4.5-.9,6.06-2.14l1.86-93.34c.04-1.99-1.01-5.19-2.31-5.98-1.4-.85-4.01-1.24-6.74-1.52l-.12-5.82,3.54-.37c1.99-.21-1.36-5.97-.82-6.59l2.42-2.79-3.46-2.79c1-2.88.52-5.01-.99-7.28L58.38,0c-1.31,8.63.75,15.84,6.34,15.73s7.86-7.01,6.75-15.24l6.74,11.06c-1.63,2.07-2.44,4.16-1.77,6.47l-2.23,3.49c.4,2.47.57,5.3.55,7.8l2.97,2.63c.88.78.15,4.21-.26,5.01l-5.22,1.01c-1.46.28-2.73,3.84-2.73,5.64l.04,104.04c0,3.33,5.74,6.8,8.41,6.66,10.33-.55,11.24-18.02,9.76-30.99l9.7,35.71-5.08-.56c-6.14,7.31-6.68,17.3-1.29,25.28l11.09,16.42c-2.25,13.91-7.45,27.78-17.08,37.73-.18-8.74-3.5-15.16-9.66-20.28l3.23-3.47Z"/>
</svg>